<svg width="65" height="65" viewBox="0 0 65 65" fill="none" xmlns="http://www.w3.org/2000/svg">
<rect width="65" height="65" rx="32.5" fill="#9BC995" fill-opacity="0.6"/>
<path d="M41.5704 15.3204C41.9975 14.8932 42.69 14.8932 43.1172 15.3204L49.6797 21.8829C50.1068 22.31 50.1068 23.0025 49.6797 23.4296L27.8047 45.3046C27.6999 45.4094 27.575 45.4918 27.4375 45.5468L16.5 49.9218C16.0938 50.0843 15.6298 49.989 15.3204 49.6796C15.011 49.3703 14.9158 48.9063 15.0783 48.5L19.4533 37.5625C19.5083 37.425 19.5906 37.3001 19.6954 37.1954L41.5704 15.3204ZM39.5156 20.4688L44.5313 25.4845L47.3595 22.6562L42.3438 17.6405L39.5156 20.4688ZM42.9845 27.0312L37.9688 22.0155L23.75 36.2343V36.875H24.8438C25.4478 36.875 25.9375 37.3647 25.9375 37.9688V39.0625H27.0313C27.6353 39.0625 28.125 39.5522 28.125 40.1562V41.25H28.7657L42.9845 27.0312ZM21.6318 38.3526L21.4009 38.5834L18.0571 46.9429L26.4166 43.5991L26.6475 43.3683C26.2327 43.2128 25.9375 42.8128 25.9375 42.3438V41.25H24.8438C24.2397 41.25 23.75 40.7603 23.75 40.1562V39.0625H22.6563C22.1873 39.0625 21.7872 38.7673 21.6318 38.3526Z" fill="white"/>
</svg>
