<svg width="159" height="159" viewBox="0 0 159 159" fill="none" xmlns="http://www.w3.org/2000/svg">
<path d="M109.312 14.9062V24.8438H144.094C146.838 24.8438 149.062 27.0683 149.062 29.8125C149.062 32.5567 146.838 34.7812 144.094 34.7812H138.743L130.269 140.71C129.443 151.039 120.819 159 110.457 159H48.5426C38.1806 159 29.5572 151.039 28.7309 140.71L20.2566 34.7812H14.9062C12.1621 34.7812 9.9375 32.5567 9.9375 29.8125C9.9375 27.0683 12.1621 24.8438 14.9062 24.8438H49.6875V14.9062C49.6875 6.67376 56.3613 0 64.5938 0H94.4062C102.639 0 109.312 6.67376 109.312 14.9062ZM59.625 14.9062V24.8438H99.375V14.9062C99.375 12.1621 97.1504 9.9375 94.4062 9.9375H64.5938C61.8496 9.9375 59.625 12.1621 59.625 14.9062ZM44.7186 49.9707L49.6874 134.439C49.8485 137.179 52.1999 139.269 54.9393 139.108C57.6788 138.947 59.7689 136.595 59.6077 133.856L54.639 49.3872C54.4778 46.6477 52.1265 44.5576 49.387 44.7188C46.6476 44.8799 44.5575 47.2313 44.7186 49.9707ZM109.613 44.7273C106.873 44.5662 104.522 46.6563 104.361 49.3957L99.3922 133.864C99.2311 136.604 101.321 138.955 104.061 139.116C106.8 139.278 109.151 137.187 109.313 134.448L114.281 49.9793C114.442 47.2398 112.352 44.8885 109.613 44.7273ZM79.5 44.7188C76.7559 44.7188 74.5313 46.9433 74.5313 49.6875V134.156C74.5313 136.9 76.7559 139.125 79.5 139.125C82.2442 139.125 84.4688 136.9 84.4688 134.156V49.6875C84.4688 46.9433 82.2442 44.7188 79.5 44.7188Z" fill="#007FFF"/>
</svg>
