<svg width="65" height="65" viewBox="0 0 65 65" fill="none" xmlns="http://www.w3.org/2000/svg">
<rect width="65" height="65" rx="32.5" fill="#9BC995" fill-opacity="0.6"/>
<path d="M15 18.2812C15 16.4691 16.4691 15 18.2812 15H21.5625V27.0312C21.5625 28.8434 23.0316 30.3125 24.8438 30.3125H40.1562C41.9684 30.3125 43.4375 28.8434 43.4375 27.0312V15H43.6252C44.4954 15 45.33 15.3457 45.9454 15.9611L49.0389 19.0546C49.6543 19.67 50 20.5046 50 21.3748V46.7188C50 48.5309 48.5309 50 46.7188 50H45.625V37.9688C45.625 36.1566 44.1559 34.6875 42.3438 34.6875H22.6562C20.8441 34.6875 19.375 36.1566 19.375 37.9688V50H18.2812C16.4691 50 15 48.5309 15 46.7188V18.2812Z" fill="white"/>
<path d="M21.5625 50H43.4375V37.9688C43.4375 37.3647 42.9478 36.875 42.3438 36.875H22.6562C22.0522 36.875 21.5625 37.3647 21.5625 37.9688V50Z" fill="white"/>
<path d="M41.25 15H23.75V27.0312C23.75 27.6353 24.2397 28.125 24.8438 28.125H40.1562C40.7603 28.125 41.25 27.6353 41.25 27.0312V15ZM34.6875 17.1875H39.0625V25.9375H34.6875V17.1875Z" fill="white"/>
</svg>
