<svg width="30" height="30" viewBox="0 0 30 30" fill="none" xmlns="http://www.w3.org/2000/svg">
<path d="M9.375 15C11.4461 15 13.125 12.7614 13.125 10C13.125 7.23858 11.4461 5 9.375 5C7.30393 5 5.625 7.23858 5.625 10C5.625 12.7614 7.30393 15 9.375 15Z" fill="black"/>
<path d="M16.875 8.75C16.875 8.05964 17.2947 7.5 17.8125 7.5H25.3125C25.8303 7.5 26.25 8.05964 26.25 8.75C26.25 9.44036 25.8303 10 25.3125 10H17.8125C17.2947 10 16.875 9.44036 16.875 8.75Z" fill="black"/>
<path d="M16.875 15C16.875 14.3096 17.2947 13.75 17.8125 13.75H25.3125C25.8303 13.75 26.25 14.3096 26.25 15C26.25 15.6904 25.8303 16.25 25.3125 16.25H17.8125C17.2947 16.25 16.875 15.6904 16.875 15Z" fill="black"/>
<path d="M18.75 21.25C18.75 20.5596 19.1697 20 19.6875 20H25.3125C25.8303 20 26.25 20.5596 26.25 21.25C26.25 21.9404 25.8303 22.5 25.3125 22.5H19.6875C19.1697 22.5 18.75 21.9404 18.75 21.25Z" fill="black"/>
<path d="M3.75 0C1.67893 0 0 2.23858 0 5V25C0 27.7614 1.67893 30 3.75 30H26.25C28.3211 30 30 27.7614 30 25V5C30 2.23858 28.3211 0 26.25 0H3.75ZM1.875 5C1.875 3.61929 2.71447 2.5 3.75 2.5H26.25C27.2855 2.5 28.125 3.61929 28.125 5V25C28.125 26.3807 27.2855 27.5 26.25 27.5H16.799C16.8491 27.0917 16.875 26.6744 16.875 26.25C16.875 21.4175 13.5171 17.5 9.375 17.5C5.46316 17.5 2.25081 20.994 1.9057 25.453C1.88553 25.3061 1.875 25.1547 1.875 25V5Z" fill="black"/>
</svg>
