<svg width="53" height="53" viewBox="0 0 53 53" fill="none" xmlns="http://www.w3.org/2000/svg">
<path fill-rule="evenodd" clip-rule="evenodd" d="M26.5 6.625C27.4147 6.625 28.1562 7.36653 28.1562 8.28125V24.8438H44.7188C45.6335 24.8438 46.375 25.5853 46.375 26.5C46.375 27.4147 45.6335 28.1562 44.7188 28.1562H28.1562V44.7188C28.1562 45.6335 27.4147 46.375 26.5 46.375C25.5853 46.375 24.8437 45.6335 24.8437 44.7188V28.1562H8.28125C7.36653 28.1562 6.625 27.4147 6.625 26.5C6.625 25.5853 7.36653 24.8438 8.28125 24.8438H24.8438V8.28125C24.8438 7.36653 25.5853 6.625 26.5 6.625Z" fill="black"/>
</svg>
