<svg width="31" height="30" viewBox="0 0 31 30" fill="none" xmlns="http://www.w3.org/2000/svg">
<path d="M5.87106 28.7015C5.72519 29.5884 6.54563 30.2827 7.2702 29.8854L15.5 25.3735L23.7298 29.8854C24.4544 30.2827 25.2748 29.5884 25.1289 28.7015L23.5732 19.2425L30.1776 12.5292C30.7948 11.9018 30.4753 10.7547 29.6484 10.6294L20.4638 9.23769L16.3686 0.58461C15.9997 -0.19487 15.0003 -0.19487 14.6314 0.58461L10.5362 9.23769L1.35157 10.6294C0.524718 10.7547 0.205217 11.9018 0.822431 12.5292L7.4268 19.2425L5.87106 28.7015ZM15.0672 23.1652L8.15641 26.954L9.45814 19.0394C9.5195 18.6663 9.40412 18.2843 9.15299 18.029L3.70266 12.4888L11.3007 11.3375C11.6148 11.2899 11.8891 11.0759 12.0373 10.7628L15.5 3.44615L18.9627 10.7628C19.1109 11.0759 19.3852 11.2899 19.6993 11.3375L27.2973 12.4888L21.847 18.029C21.5959 18.2843 21.4805 18.6663 21.5419 19.0394L22.8436 26.954L15.9328 23.1652C15.6598 23.0156 15.3402 23.0156 15.0672 23.1652Z" fill="black"/>
</svg>
