<svg width="30" height="30" viewBox="0 0 30 30" fill="none" xmlns="http://www.w3.org/2000/svg">
<path d="M16.875 1.91107e-05L20.5886 0C20.8567 1.34065 21.6011 3.03198 22.9032 4.7099C24.179 6.354 25.8696 7.50002 28.125 7.50002V11.25C24.8374 11.25 22.367 9.72459 20.625 7.82137V20.625C20.625 25.8027 16.4277 30 11.25 30C6.07233 30 1.875 25.8027 1.875 20.625C1.875 15.4473 6.07233 11.25 11.25 11.25V15C8.1434 15 5.625 17.5184 5.625 20.625C5.625 23.7316 8.1434 26.25 11.25 26.25C14.3566 26.25 16.875 23.7316 16.875 20.625V1.91107e-05Z" fill="black"/>
</svg>
