<svg width="48" height="48" viewBox="0 0 48 48" fill="none" xmlns="http://www.w3.org/2000/svg">
<path fill-rule="evenodd" clip-rule="evenodd" d="M24.0215 44.3667C35.2697 44.3667 44.3882 35.2482 44.3882 24C44.3882 12.7518 35.2697 3.63333 24.0215 3.63333C12.7733 3.63333 3.65482 12.7518 3.65482 24C3.65482 35.2482 12.7733 44.3667 24.0215 44.3667ZM24.0215 47.5C37.0002 47.5 47.5215 36.9787 47.5215 24C47.5215 11.0213 37.0002 0.5 24.0215 0.5C11.0428 0.5 0.521484 11.0213 0.521484 24C0.521484 36.9787 11.0428 47.5 24.0215 47.5Z" fill="black"/>
<path d="M20.698 20.6252L36.2073 11.7628L27.3449 27.272L11.8356 36.1344L20.698 20.6252Z" fill="black"/>
</svg>
